PathFileType  4	(X/Y/Z) C:\Users\15086\Documents\GitHub\mocap-processing\BertecTesting2023-09-14\
DataRate	CameraRate	NumFrames	NumMarkers	Units	OrigDataRate	OrigDataStartFrame	OrigNumFrames
  200.0		  200.0		   14		     10		 mm	  200.0	      713	   1900
Frame#	Time	r_calc			r_toe			r_meta			r_ankle			r_mankle			l_calc			l_toe			l_meta			l_ankle			l_mankle			
		X1	Y1	Z1	X2	Y2	Z2	X3	Y3	Z3	X4	Y4	Z4	X5	Y5	Z5	X6	Y6	Z6	X7	Y7	Z7	X8	Y8	Z8	X9	Y9	Z9	X10	Y10	Z10	

713	3.56000	462.822	271.394	-258.754	568.340	82.011	-258.004	529.921	102.651	-209.177	532.148	239.499	-204.235	551.157	239.588	-288.774	1023.128	281.107	-372.474	1216.597	199.359	-417.530	1158.271	209.139	-461.427	1096.562	307.545	-432.638	1131.369	298.847	-352.682
714	3.56500	448.299	290.911	-254.217	544.875	97.436	-254.843	508.373	119.936	-205.201	517.046	256.100	-200.941	533.664	255.122	-286.380	1047.446	259.456	-371.300	1246.699	191.749	-415.398	1187.743	196.809	-459.535	1119.121	291.079	-431.449	1154.117	285.236	-351.427
715	3.57000	432.292	310.822	-250.914	521.768	115.393	-252.059	488.214	139.014	-203.241	501.734	273.500	-197.948	515.700	271.033	-284.420	1072.682	238.617	-369.635	1276.127	185.409	-413.133	1217.125	185.436	-457.317	1141.571	275.174	-430.203	1176.912	272.617	-350.100
716	3.57500	416.672	332.723	-246.568	499.114	133.254	-250.891	468.570	158.879	-199.999	485.408	293.563	-197.173	498.102	289.071	-282.215	1097.553	218.343	-369.007	1305.519	180.707	-410.192	1246.220	175.132	-454.720	1164.116	260.000	-428.820	1199.238	260.906	-348.809
717	3.58000	403.400	355.921	-242.433	477.398	153.017	-248.189	449.451	179.895	-197.031	470.923	313.577	-194.982	480.513	309.667	-279.976	1123.089	199.323	-366.674	1333.090	176.626	-407.804	1274.779	165.610	-451.857	1186.517	245.350	-427.509	1221.238	249.748	-347.309
718	3.58500	392.937	380.882	-238.727	456.353	174.235	-246.310	430.821	202.274	-194.288	458.423	334.539	-192.629	467.521	329.887	-278.014	1148.473	182.168	-364.845	1359.548	172.903	-404.996	1302.874	157.234	-448.782	1209.076	231.836	-426.041	1242.716	239.208	-346.129
719	3.59000	385.133	406.405	-235.176	436.152	196.398	-244.585	412.981	226.106	-191.773	448.432	356.025	-190.093	455.971	350.143	-274.256	1173.109	166.376	-362.994	1384.699	170.114	-401.682	1329.208	149.235	-445.283	1230.264	219.046	-425.492	1263.358	229.459	-344.886
720	3.59500	379.212	432.540	-232.312	416.968	219.694	-242.429	395.874	250.385	-189.340	439.561	378.307	-187.737	446.023	371.092	-272.149	1197.294	152.692	-360.919	1408.472	168.254	-399.413	1354.396	142.559	-441.638	1250.606	206.507	-423.436	1283.051	220.578	-343.538
721	3.60000	375.536	458.523	-230.049	399.483	243.847	-240.745	380.267	275.807	-186.936	431.937	400.627	-184.832	437.586	393.455	-269.646	1219.437	140.631	-359.417	1429.726	166.890	-394.140	1377.780	137.042	-437.748	1269.775	195.999	-422.725	1300.981	212.866	-342.484
722	3.60500	374.168	485.159	-227.768	384.236	269.272	-238.802	366.964	302.073	-184.730	426.022	423.705	-181.688	431.928	415.930	-267.534	1239.415	131.023	-358.372	1448.530	166.463	-391.072	1398.754	132.396	-434.210	1287.468	186.686	-421.703	1317.102	206.351	-341.865
723	3.61000	375.478	511.886	-225.602	371.544	295.250	-236.382	355.961	329.522	-182.275	422.736	446.421	-181.585	428.458	437.451	-265.356	1257.030	123.149	-357.607	1463.683	166.759	-387.841	1417.339	129.137	-430.637	1302.747	178.640	-421.108	1331.099	201.135	-341.437
724	3.61500	379.339	537.886	-224.391	361.831	322.346	-232.285	347.908	357.687	-179.892	421.863	470.217	-179.746	427.031	460.905	-263.420	1271.974	116.901	-356.887	1478.363	166.921	-385.212	1434.074	126.919	-427.433	1316.462	173.148	-421.130	1342.848	196.987	-341.324
725	3.62000	385.785	563.846	-223.543	354.584	349.470	-229.972	342.961	386.158	-177.133	423.747	493.690	-178.232	427.938	482.110	-261.964	1284.182	111.786	-356.638	1489.068	167.430	-382.748	1446.578	124.356	-424.459	1326.390	167.348	-420.414	1352.513	194.145	-341.407
726	3.62500	394.599	588.556	-223.210	350.111	376.588	-226.581	340.906	414.646	-174.671	427.973	517.171	-176.794	430.989	504.048	-260.917	1293.723	107.682	-355.978	1497.364	167.433	-380.957	1456.527	122.219	-422.236	1334.412	163.404	-420.253	1359.726	191.821	-341.944
